HIERARCHY
ROOT pelvis
{
  OFFSET 0 100 0
  CHANNELS 6 Xposition Yposition Zposition Zrotation Xrotation Yrotation
  JOINT pelvis_right_femur
  {
    OFFSET -10.78128 -3.44521 -0.5502486
    CHANNELS 3 Zrotation Xrotation Yrotation
    JOINT right_femur_tibia
    {
      OFFSET -0.8047443 -44.0398 -0.1307829
      CHANNELS 3 Zrotation Xrotation Yrotation
      JOINT right_tibia_foot
      {
        OFFSET 3.006224 -47.83518 -5
        CHANNELS 3 Zrotation Xrotation Yrotation
        End Site
        {
          OFFSET 0 -5 15
        }
      }
    }
  }
  JOINT pelvis_left_femur
  {
    OFFSET 10.78128 -3.44521 -0.5502486
    CHANNELS 3 Zrotation Xrotation Yrotation
    JOINT left_femur_tibia
    {
      OFFSET 0.8047443 -44.0398 -0.1307829
      CHANNELS 3 Zrotation Xrotation Yrotation
      JOINT left_tibia_foot
      {
        OFFSET -4.370144 -48.10324 -4.275266
        CHANNELS 3 Zrotation Xrotation Yrotation
        End Site
        {
          OFFSET 0 -5 15
        }
      }
    }
  }
  JOINT pelvis_spine1
  {
    OFFSET 0 6.468898 -3.129235
    CHANNELS 3 Zrotation Xrotation Yrotation
    JOINT spine1
    {
      OFFSET 0 23.15396 4.99043
      CHANNELS 3 Zrotation Xrotation Yrotation
      JOINT spine2
      {
        OFFSET 0 20.79997 -5.064912
        CHANNELS 3 Zrotation Xrotation Yrotation
        JOINT neck
        {
          OFFSET 0 14.38658 9.616178
          CHANNELS 3 Zrotation Xrotation Yrotation
          End Site
          {
            OFFSET 0 20 0
          }
        }
      }
      JOINT right_manubrium
      {
        OFFSET -5.722621 16.35077 3.967754
        CHANNELS 3 Zrotation Xrotation Yrotation
        JOINT right_clavicle
        {
          OFFSET -13.16364 1.694482 -4.693211
          CHANNELS 3 Zrotation Xrotation Yrotation
          JOINT right_humerus
          {
            OFFSET -28.5034 -0.3100689 -2.792744
            CHANNELS 3 Zrotation Xrotation Yrotation
            JOINT right_radius
            {
              OFFSET -25.15693 0.02248979 -1.271978
              CHANNELS 3 Zrotation Xrotation Yrotation
              End Site
              {
                OFFSET -15 0 0
              }
            }
          }
        }
      }
      JOINT left_manubrium
      {
        OFFSET 5.722621 16.35077 3.967754
        CHANNELS 3 Zrotation Xrotation Yrotation
        JOINT left_clavicle
        {
          OFFSET 13.16364 1.694482 -4.693211
          CHANNELS 3 Zrotation Xrotation Yrotation
          JOINT left_humerus
          {
            OFFSET 29.39168 -1.063119 -2.237045
            CHANNELS 3 Zrotation Xrotation Yrotation
            JOINT left_radius
            {
              OFFSET 24.59957 -0.9528479 0.9047498
              CHANNELS 3 Zrotation Xrotation Yrotation
              End Site
              {
                OFFSET 15 -0 -0
              }
            }
          }
        }
      }
    }
  }
}
MOTION
Frames: 21
Frame Time: 0.0416666666667
0 103.5113 0 0.1881776 -2.953085 -0.009936903 0.3494714 -9.985005 10.43537 -0 37.11218 -0 0.2252717 -12.9292 -1.161742 -5.838553 10.93271 -17.16384 -0 6.377279 -0 5.169354 -19.36812 23.35988 -1.967494 -3.970675 7.301388 -0.02238052 11.70234 -8.069706 1.933075 18.35436 6.289845 4.836299 -21.34612 6.542398 12.04333 -18.90669 12.85132 82.11916 39.67683 -19.29226 -0 0 15.15696 -13.62925 3.845586 11.61851 6.826504 -22.57608 -6.07709 -100.5017 33.83569 26.19857 0 0 -17.13549 6.673635 22.82688 9.153586
0.4317103 103.4268 1.051462 0.1766738 -2.948519 0.003419826 0.917576 -13.93335 9.81777 -0 42.32871 -0 0.009812889 -11.99339 -2.661872 -5.985282 11.81837 -16.69357 -0 5.994442 -0 4.593698 -19.92304 22.74792 -2.252791 -3.24172 6.894783 0.02983231 11.75197 -8.387356 1.776807 17.90654 6.724493 5.360438 -21.74602 6.430164 12.04534 -19.04906 12.53585 81.70124 39.39096 -18.8849 -0 0 15.21346 -13.72138 3.838253 11.6802 6.766152 -22.52973 -5.962313 -99.67106 33.6877 25.46504 0 0 -17.31636 7.100907 22.76363 9.193207
0.7197987 103.4536 2.226713 0.1646336 -2.923637 0.08326338 1.61872 -17.68118 8.922426 -0 44.90781 -0 -0.3597152 -11.3135 -3.683826 -6.047419 12.69076 -16.23002 -0 5.667673 -0 3.929014 -20.48512 22.10332 -2.632919 -2.35004 6.593815 0.01202959 11.76857 -8.634373 1.616255 17.58604 7.031825 5.714916 -22.37308 6.347878 11.93538 -19.04567 12.26641 81.63313 39.133 -18.63378 -0 0 15.18107 -13.7253 3.868754 11.70903 6.768631 -22.60092 -5.8189 -98.77312 33.52477 24.60665 0 0 -17.38975 7.447091 22.61075 9.284324
1.0268 103.4387 3.757378 0.1526095 -2.89114 0.1858603 2.25319 -20.98177 7.851335 -0 44.46693 -0 -0.6969784 -10.43366 -4.104007 -6.105469 13.75486 -15.70364 -0 5.408279 -0 3.194088 -21.1064 21.35165 -2.898367 -1.419125 6.365916 0.3186258 11.58492 -8.848956 1.930309 17.35407 7.263691 6.186862 -23.21521 6.75538 11.49235 -18.86394 11.91933 81.82703 38.92871 -18.66617 -0 0 14.91462 -13.62423 3.947152 11.66782 6.771947 -22.74008 -5.846491 -98.00603 33.37872 23.68328 0 0 -17.64252 7.593081 22.37436 9.388888
1.304263 103.2402 5.322069 0.1411655 -2.849948 0.3148113 2.813931 -23.773 6.79307 -0 41.01367 -0 -0.9890068 -9.365651 -4.00213 -6.16353 14.85382 -15.10687 -0 5.191521 -0 2.4489 -21.8764 20.50304 -3.327184 -0.1798017 6.183172 0.6899089 11.32769 -9.059503 2.176533 17.11561 7.386654 6.497532 -24.15514 7.100662 11.05452 -18.69575 11.76026 82.18378 38.80455 -18.74219 -0 0 14.44817 -13.39667 4.070188 11.55823 6.942477 -22.94146 -6.051302 -97.24379 33.27252 22.7072 0 0 -18.07274 7.602951 22.07507 9.455577
1.599172 102.8396 7.558462 0.1281401 -2.86461 0.2468074 3.121676 -25.58551 5.950974 -0 35.72656 -0 -1.383157 -8.328231 -3.573178 -6.322508 16.3456 -14.36626 -0 5.194443 -0 1.673058 -22.76656 19.52587 -3.45316 0.6980256 6.229819 1.000472 11.0969 -8.986523 2.318468 16.98364 7.421098 6.666332 -25.16057 7.346742 10.53916 -18.32077 11.57374 82.8366 38.7312 -19.17925 -0 0 13.55102 -13.07732 4.24783 11.32796 7.048899 -23.08586 -5.941897 -96.81632 33.07096 21.79806 0 0 -18.81226 7.664548 21.80247 9.469984
1.913853 102.3124 10.0464 0.1183641 -2.811283 0.4140563 3.330323 -27.39145 5.34658 -0 29.4176 -0 -1.875485 -7.077952 -3.195348 -6.461724 17.78042 -13.57869 -0 5.440398 -0 0.8269939 -23.68038 18.38847 -3.594529 1.619991 6.149521 1.351009 10.84016 -9.012068 2.505186 16.86235 7.363995 6.815166 -26.20598 7.555109 10.03219 -17.98852 11.54982 83.55695 38.73854 -19.62618 -0 0 12.43466 -12.68202 4.480041 11.01828 7.133432 -23.22584 -6.079553 -96.39057 32.91638 21.00851 0 0 -19.47121 7.559749 21.46945 9.501586
2.149368 101.5944 12.87162 0.1118095 -2.699982 0.7837623 3.495793 -28.86623 4.757917 -0 23.27056 -0 -2.526407 -5.912455 -2.946164 -6.536554 19.16415 -12.73918 -0 6.083541 -0 -0.1471352 -24.46793 17.07338 -3.677523 2.359771 6.039766 1.615746 10.58763 -9.036147 2.645869 16.84902 7.294786 6.920342 -27.12527 7.723989 9.515843 -17.55776 11.44335 84.4877 38.71392 -20.23465 -0 0 11.31918 -12.26779 4.743064 10.71567 7.093247 -23.4292 -6.187687 -95.97728 32.74115 20.36687 0 0 -19.89935 7.336306 21.08302 9.598237
2.28376 100.8043 15.95423 0.1076924 -2.530933 1.355856 3.718547 -29.60909 4.173196 -0 18.38648 -0 -3.349694 -5.05407 -2.805437 -6.552006 20.25877 -11.89152 -0 7.337008 -0 -1.35659 -24.92295 15.5775 -3.592452 3.149294 5.864889 1.824274 10.3038 -9.104543 2.649676 16.88863 7.243333 6.954242 -28.04278 7.804737 9.051122 -17.24734 11.21322 85.40674 38.64613 -20.81683 -0 0 10.35798 -11.89714 5.024112 10.47512 6.902818 -23.50899 -6.047716 -95.51482 32.56897 19.92352 0 0 -19.92192 6.972108 20.64278 9.791474
2.403081 100.2145 19.87872 0.1039175 -2.363159 1.929043 4.236559 -29.50383 3.915465 -0 15.97145 -0 -4.361103 -4.450402 -2.906388 -6.314271 21.43791 -11.21585 -0 9.600994 -0 -3.001816 -24.59417 13.70957 -3.280886 3.374133 5.763336 2.053574 10.08083 -9.133216 2.487015 17.33395 7.287432 6.950153 -28.94012 7.88637 8.668718 -16.77434 10.78166 86.43091 38.51327 -21.67409 -0 0 9.344941 -11.55962 5.338313 10.24245 6.483484 -23.5469 -5.742658 -95.33533 32.35797 19.86887 0 0 -19.66866 6.518565 20.19877 10.11612
2.592082 99.87425 24.30538 0.1004226 -2.155428 2.644141 4.493844 -28.08257 3.61456 -0 15.95217 -0 -5.516626 -4.130925 -3.112703 -5.911896 21.9329 -10.58441 -0 13.04775 -0 -4.990237 -23.07783 11.70235 -3.039519 3.386698 5.348228 2.224924 9.952994 -9.440794 2.302629 17.62209 7.434344 7.000981 -29.6398 7.984672 8.472786 -16.50074 10.53738 87.21079 38.39318 -22.29733 -0 0 8.527083 -11.28464 5.67177 10.0813 5.924557 -23.23281 -5.633625 -95.32996 32.08065 20.33041 0 0 -18.8973 5.929424 19.67889 10.58311
2.748781 99.99283 29.36347 0.09589848 -1.952474 3.346905 4.744278 -26.02815 3.507728 -0 17.45329 -0 -6.779726 -4.020837 -3.313483 -5.797606 21.87742 -9.733394 -0 18.33008 -0 -7.133169 -19.93224 9.8295 -2.603611 2.855269 4.898641 2.328193 9.867108 -9.714397 2.056609 17.78218 7.539289 6.927171 -29.97331 7.951408 8.221111 -15.92036 10.26417 88.10683 38.22417 -23.16131 -0 0 7.68359 -11.06132 6.030038 9.959807 5.262971 -22.6628 -5.488916 -95.51853 31.71236 21.23659 0 0 -17.79986 5.254108 19.08872 11.11437
3.037785 100.5214 35.09478 0.08860568 -2.000841 3.181179 4.910359 -23.4588 3.624291 -0 18.80677 -0 -7.899387 -4.672748 -3.359241 -5.685353 20.89996 -9.352942 -0 25.97002 -0 -9.285198 -14.90874 8.110666 -2.047474 1.986925 4.894578 2.281379 9.880768 -9.493986 1.760495 17.92875 7.60491 6.752123 -30.00674 7.809313 7.858822 -15.28938 10.19484 88.82001 38.06022 -23.75493 -0 0 7.109415 -10.95945 6.392471 9.963282 4.62057 -21.78829 -5.139035 -95.92442 31.18937 22.47626 0 0 -16.69964 4.600926 18.45612 11.60126
3.285775 100.9481 40.41225 0.0801636 -2.104923 2.825304 4.997297 -20.36099 3.639388 -0 19.26353 -0 -8.872127 -6.159686 -3.252691 -5.761648 17.87326 -8.861513 -0 33.86632 -0 -11.17941 -9.511584 6.997821 -1.494074 1.37778 5.140231 2.261411 9.829561 -9.11325 1.382549 18.2266 7.637919 6.469336 -29.64489 7.528388 7.508652 -15.04795 10.41232 89.06183 38.01781 -23.62095 -0 0 6.780559 -11.02633 6.748025 10.07994 4.192416 -21.15378 -4.836621 -96.02831 30.64253 23.32541 0 0 -15.98026 4.057961 17.81346 11.92533
3.578864 101.6173 45.99605 0.06373161 -2.422204 1.734391 5.059879 -16.24 3.595757 -0 18.72617 -0 -9.532936 -7.98575 -2.891518 -5.941483 13.22105 -8.342103 -0 43.79618 -0 -12.28048 -4.331292 6.608288 -1.095289 0.6140108 5.898856 2.281621 9.934617 -8.47714 0.9765101 18.78053 7.65048 6.178139 -29.19047 7.191112 7.268073 -15.10477 10.66546 88.60771 38.04024 -22.9061 -0 0 6.825255 -11.39677 7.049983 10.36744 3.750559 -20.63119 -4.336595 -95.83934 30.06231 24.00646 0 0 -15.51616 3.62693 17.15917 12.07859
3.905404 102.4757 51.40198 0.03972313 -2.793463 0.4615679 4.921022 -11.61727 3.456244 -0 17.1483 -0 -9.811011 -9.707381 -2.449375 -5.352163 6.88839 -7.882775 -0 53.37605 -0 -12.50584 -1.299318 7.244107 -0.8018923 -0.02003374 7.002074 2.357911 10.06616 -7.689362 0.6173009 19.51442 7.595744 5.929489 -28.7336 6.786186 7.068547 -15.36313 11.01454 87.5643 38.1248 -21.68352 -0 0 7.086479 -12.01772 7.319669 10.7286 3.407771 -20.52877 -3.731871 -95.21292 29.50566 24.19557 0 0 -15.40593 3.366306 16.50116 12.05707
4.025769 103.2074 56.05759 0.04225433 -2.761719 0.5879918 4.65597 -7.30684 3.132741 -0 14.70667 -0 -9.699691 -11.1083 -2.049756 -4.161219 -0.3299419 -6.464572 -0 57.9785 -0 -12.09441 -1.905956 9.254396 -0.7895967 -0.2848669 7.785788 2.555569 9.867461 -7.233272 0.3583178 20.04558 7.454191 5.726195 -28.31799 6.318432 6.821697 -15.98974 11.27001 86.05756 38.21124 -19.746 -0 0 7.85267 -12.87337 7.547593 11.22554 3.442377 -20.65606 -3.216367 -94.24538 28.95854 23.93317 0 0 -15.78902 3.301751 15.85258 11.81824
4.193037 104.0094 60.56991 0.04354027 -2.779964 0.537131 4.348786 -2.925077 2.710625 -0 11.94949 -0 -9.279774 -12.24013 -1.664263 -2.621299 -7.613605 -5.565097 -0 59.23637 -0 -10.52623 -4.205831 11.40281 -0.9425854 -0.1641183 8.458398 2.699564 9.618992 -6.734012 0.122898 20.50076 7.288756 5.530009 -27.92822 5.831663 6.605766 -16.82169 11.65674 84.22375 38.26286 -17.32345 -0 0 8.926912 -13.87237 7.743118 11.84845 3.589986 -20.8244 -2.760207 -93.2406 28.39142 23.52007 0 0 -16.36418 3.278989 15.19373 11.49701
4.497551 104.426 65.17859 0.04557379 -2.797521 0.4846604 4.03187 1.335356 2.330545 -0 9.500356 -0 -8.669328 -13.27187 -1.3729 -0.8930776 -14.63942 -4.560991 -0 56.29993 -0 -8.52262 -6.649046 13.55292 -1.059218 0.0008457423 8.875173 2.673904 9.32264 -6.193341 -0.09828917 20.76427 7.194668 5.335982 -27.56137 5.46427 6.166257 -17.56574 12.02607 82.39483 38.21821 -14.79113 -0 0 10.23024 -14.91032 7.913103 12.5269 3.825824 -20.93689 -2.312854 -92.38532 27.81953 23.12674 0 0 -16.95982 3.262346 14.56162 11.15878
4.837496 104.4438 69.66666 0.05186669 -2.739525 0.6858973 3.815718 5.108986 1.96198 -0 7.49937 -0 -8.031736 -14.45567 -1.24452 1.037228 -20.05556 -3.050188 -0 49.75547 -0 -7.143047 -7.715661 15.78019 -1.16174 0.4763124 9.086575 2.389999 9.143749 -5.616003 -0.2407426 20.67261 7.124748 5.169723 -27.31445 5.206948 5.60493 -18.04945 12.53175 80.86558 38.05661 -12.30539 -0 0 11.74854 -15.95167 8.059955 13.24621 4.056052 -21.10971 -2.079094 -91.61236 27.30056 22.68626 0 0 -17.42562 3.191082 13.94833 10.8894
5.296078 103.9373 74.3042 0.05786824 -2.659583 0.9579054 3.666138 8.493792 1.694061 -0 6.366241 -0 -7.401096 -15.82841 -1.338643 2.763348 -23.69115 -1.341968 -0 40.66089 -0 -6.330795 -7.564989 17.7557 -1.209338 0.9332191 8.954411 1.975095 8.880962 -5.236944 -0.3994156 20.48545 7.129344 4.99654 -27.02705 5.034901 5.040466 -18.82979 13.02601 79.19716 37.80249 -9.515704 -0 0 13.43771 -17.04148 8.166081 13.94961 4.239887 -21.21165 -1.986222 -91.02263 26.82564 22.35169 0 0 -17.6416 3.051529 13.38258 10.73924
